<svg id="Layer_1" data-name="Layer 1" xmlns="http://www.w3.org/2000/svg" viewBox="0 0 5.84 13.7">
  <defs>
    <style>
      .cls-1 {
        fill: #009fe3;
      }
    </style>
  </defs>
  <title>icon-call</title>
  <path class="cls-1" d="M1019.95,847.89a5.08,5.08,0,0,1-.82-1.4,11.64,11.64,0,0,1-.89-2.46,10.53,10.53,0,0,1-.16-3,11.92,11.92,0,0,1,.75-3.58,3.34,3.34,0,0,1,2.2-2.12,3.78,3.78,0,0,1,1.22-.11,1.39,1.39,0,0,1,.68.32,2,2,0,0,1,.46.54,0.55,0.55,0,0,1,.05.39,4.41,4.41,0,0,1-.25.66c-0.23.52-.48,1-0.68,1.56a0.85,0.85,0,0,1-.78.57,7.68,7.68,0,0,1-.85,0,0.43,0.43,0,0,0-.47.35,8.38,8.38,0,0,0-.32,2.43,8,8,0,0,0,.55,2.6,0.44,0.44,0,0,0,.55.37l1.33-.09a0.45,0.45,0,0,1,.52.32c0.28,0.84.55,1.69,0.82,2.54a0.43,0.43,0,0,1-.19.46,2.19,2.19,0,0,1-2.16.56,3.44,3.44,0,0,1-1.56-.9" transform="translate(-1018.04 -835.17)"/>
</svg>
