<svg id="Layer_1" data-name="Layer 1" xmlns="http://www.w3.org/2000/svg" viewBox="0 0 21.94 21.97">
  <defs>
    <style>
      .cls-1 {
        fill: #fff;
      }
    </style>
  </defs>
  <title>icon-phone</title>
  <path class="cls-1" d="M802.44,1487.35a17.14,17.14,0,0,0,7.35,7.37l1.28-1.62a3.53,3.53,0,0,0,.24-0.3,1.61,1.61,0,0,1,2.24-.47c1.34,0.72,2.71,1.4,4.06,2.1a1.48,1.48,0,0,1,.63,2.34l-1.74,2.7a2.24,2.24,0,0,1-2.41,1,23.16,23.16,0,0,1-2.72-.47,18.81,18.81,0,0,1-6.55-3.49,23.49,23.49,0,0,1-6.68-8.12,14.1,14.1,0,0,1-1.35-4,11.55,11.55,0,0,1-.15-2.06,2.09,2.09,0,0,1,1-1.7c0.9-.6,1.8-1.2,2.71-1.79a1.49,1.49,0,0,1,2.26.6q1.11,2.13,2.21,4.26a1.51,1.51,0,0,1-.43,2c-0.33.27-.67,0.53-1,0.79l-1,.77" transform="translate(-796.65 -1478.59)"/>
</svg>
