<svg id="Layer_1" data-name="Layer 1" xmlns="http://www.w3.org/2000/svg" viewBox="0 0 141.97 48.86">
  <defs>
    <style>
      .cls-1 {
        fill: #37c3ff;
        fill-rule: evenodd;
      }

      .cls-2 {
        font-size: 15.35px;
        fill: #1d1d1b;
        font-family: PT Astra Sans;
        font-weight: 700;
        letter-spacing: 2px;
      }
    </style>
  </defs>
  <title>logo</title>
  <g>
    <path class="cls-1" d="M261,385.79h-3l0,0h0l-0.69,2.39-0.05.18-0.18.06c-0.25.08-.5,0.17-0.74,0.27h0a7.62,7.62,0,0,0-.7.33l-0.17.09-0.17-.09-2.17-1.2H253l-2.08,2.08h0v0a0.06,0.06,0,0,0,0,0h0l1.19,2.16,0.09,0.17-0.09.17c-0.12.23-.24,0.47-0.34,0.72s-0.19.49-.27,0.74l-0.06.18-0.19.05-2.38.67,0,0v0h0v3h0v0l0,0,2.37,0.67,0.19,0.05,0.06,0.18a7.55,7.55,0,0,0,.28.75c0.11,0.25.22,0.49,0.35,0.72l0.09,0.17-0.09.17-1.21,2.16h0a0.06,0.06,0,0,0,0,0v0h0L253,405h0.06l2.17-1.21,0.17-.09,0.17,0.09c0.24,0.13.48,0.24,0.72,0.34h0c0.24,0.1.49,0.19,0.73,0.27l0.18,0.06,0.05,0.18L258,407h0l0,0h3l0,0h0l0.69-2.38,0.05-.18,0.18-.06q0.38-.12.73-0.27c0.24-.1.48-0.22,0.72-0.34l0.17-.09,0.17,0.09,2.17,1.21h0.06l2.08-2.08h0v0a0.06,0.06,0,0,0,0,0h0l-1.21-2.16-0.09-.17,0.09-.17c0.12-.23.24-0.47,0.35-0.72a7.37,7.37,0,0,0,.28-0.75l0.06-.18,0.19-.05,2.38-.67,0,0h0v0h0v-3h0v0h0l0,0-2.38-.67-0.19-.05-0.06-.18c-0.08-.25-0.17-0.5-0.27-0.74s-0.22-.49-0.34-0.72l-0.09-.17,0.09-.17L268,390h0a0.06,0.06,0,0,0,0,0v0h0l-2.08-2.08h-0.07l-2.17,1.2-0.17.09-0.17-.09a7.65,7.65,0,0,0-.71-0.33q-0.36-.15-0.74-0.27l-0.18-.06-0.05-.18L261,385.85a0.14,0.14,0,0,0,0-.05h0Zm-4.33,7.78h0a4,4,0,0,1,5.68,0h0a4,4,0,0,1,0,5.68h0a4,4,0,0,1-5.68,0h0a4,4,0,0,1,0-5.68h0Z" transform="translate(-235 -372)"/>
    <polygon class="cls-1" points="23 11.84 25.96 11.84 25.96 2.96 23 2.96 23 11.84 23 11.84"/>
    <polygon class="cls-1" points="0 48.86 2.96 48.86 2.96 2.41 0 2.41 0 48.86 0 48.86"/>
    <polygon class="cls-1" points="46.05 48.86 49.01 48.86 49.01 2.41 46.05 2.41 46.05 48.86 46.05 48.86"/>
    <polygon class="cls-1" points="0 0 0 2.96 141.97 2.96 141.97 0 0 0 0 0"/>
    <polygon class="cls-1" points="0 45.9 0 48.86 141.97 48.86 141.97 45.9 0 45.9 0 45.9"/>
    <polygon class="cls-1" points="23 45.97 25.96 45.97 25.96 37.08 23 37.08 23 45.97 23 45.97"/>
    <polygon class="cls-1" points="23 11.84 25.96 11.84 25.96 1.48 23 1.48 23 11.84 23 11.84"/>
    <polygon class="cls-1" points="23 47.1 25.96 47.1 25.96 37.08 23 37.08 23 47.1 23 47.1"/>
    <polygon class="cls-1" points="32.36 14.49 34.45 16.58 47.63 3.4 45.54 1.31 32.36 14.49 32.36 14.49"/>
    <polygon class="cls-1" points="1.26 45.6 3.35 47.69 16.6 34.43 14.51 32.34 1.26 45.6 1.26 45.6"/>
    <polygon class="cls-1" points="37.1 22.98 37.1 25.94 46.75 25.94 46.75 22.98 37.1 22.98 37.1 22.98"/>
    <polygon class="cls-1" points="1.83 22.98 1.83 25.94 11.86 25.94 11.86 22.98 1.83 22.98 1.83 22.98"/>
    <polygon class="cls-1" points="34.45 32.34 32.36 34.43 45.66 47.73 47.75 45.64 34.45 32.34 34.45 32.34"/>
    <polygon class="cls-1" points="3.35 1.24 1.26 3.33 14.51 16.58 16.6 14.49 3.35 1.24 3.35 1.24"/>
    <text class="cls-2" transform="translate(56.9 20.76)">ПО</text>
    <text class="cls-2" transform="translate(84.8 20.76)">ЛИВ</text>
    <text class="cls-2" transform="translate(56.9 38.84)">СЕРВИС</text>
    <polygon class="cls-1" points="139.02 48.85 141.97 48.85 141.97 0 139.02 0 139.02 48.85 139.02 48.85"/>
  </g>
</svg>
