<svg id="Layer_1" data-name="Layer 1" xmlns="http://www.w3.org/2000/svg" viewBox="0 0 40.72 38.25">
  <defs>
    <style>
      .cls-1 {
        fill: #009fe3;
      }
    </style>
  </defs>
  <title>snowflake</title>
  <path class="cls-1" d="M461.18,2788.45h-3.86l1.74,3h3.88l-1.76-3m6,3h3.9a0.19,0.19,0,0,0,.18-0.12l1.64-2.81a1.13,1.13,0,0,0,.06-0.12h-4l-1.75,3m-9.79,5.59h3.7a0.21,0.21,0,0,0,.22-0.11l1.72-3a0.84,0.84,0,0,0,0-.11h-3.74a0.2,0.2,0,0,0-.2.12l-1.67,2.95s0,0.09-.07.15m9.66-3.22,0.11,0.2,1.66,2.88a0.26,0.26,0,0,0,.26.16h4l-0.09-.18-1.7-2.89a0.26,0.26,0,0,0-.27-0.16H467Zm-2,1.31-0.1.16c-0.58,1-1.15,2-1.73,3a0.31,0.31,0,0,0,0,.36l1.79,3.09,0.1,0.15,0.1-.15,1.75-3a0.25,0.25,0,0,0,0-.29l-1.81-3.13-0.1-.16m0.13-11.53-2.05,3.47,1.93,3.33,0.11-.17,1.87-3.23a0.26,0.26,0,0,0,0-.3l-1.73-2.93-0.11-.17M464,2810.79h-2.54a0.25,0.25,0,0,1-.25-0.15l-2.43-4.18-0.11-.17-2.68,4.65-2-1.18,2.63-4.55h-6.27a1,1,0,0,1,0-.12l1.22-2.12a0.2,0.2,0,0,1,.21-0.11h6.17l1.92-3.33c-0.76,0-1.48,0-2.21,0h-4.41l3.2-5.64H453a0.27,0.27,0,0,0-.28.16l-3.75,6.51-0.11.18c-0.46-.79-0.9-1.56-1.35-2.34l2.58-4.51c-0.21,0-.41,0-0.6,0h-4.76v-2.36c0.58,0,1.15,0,1.73,0h3.48a0.21,0.21,0,0,0-.06-0.17l-1.94-3.36-1-1.75-0.08-.16h2.53a0.25,0.25,0,0,1,.25.15l3,5.15a0.28,0.28,0,0,0,.28.17h3.39l-1.57-2.74-1.57-2.74a2.3,2.3,0,0,1,.48,0h6.12l-0.07-.14-1.79-3.1a0.23,0.23,0,0,0-.23-0.13l-6,0a0.29,0.29,0,0,1-.29-0.17c-0.37-.67-0.76-1.32-1.14-2l-0.1-.19h6.29l-2.62-4.55,2-1.18,2.69,4.66,2.61-4.49h2.7l-0.07.14-3.78,6.53a0.3,0.3,0,0,0,0,.35c0.54,0.92,1.06,1.84,1.6,2.76l0.13,0.21,3.44-5.81,3.3,5.59,0.11-.18,1.59-2.74a0.25,0.25,0,0,0,0-.29l-3-5.16-0.09-.17,1.33-2.3h0.05l0,0,3.07,5.32,0,0,2.62-4.53,2,1.18-2.68,4.65h5a0.29,0.29,0,0,1,.29.17c0.38,0.67.76,1.32,1.14,2l0.1,0.19h-7.71a0.26,0.26,0,0,0-.31.17c-0.57,1-1.14,2-1.72,3l-0.1.19c0.2,0,.37,0,0.54,0h6.33l-3.21,5.47h3.29a0.26,0.26,0,0,0,.26-0.15l3-5.14a0.29,0.29,0,0,1,.29-0.17h2.52l-3.15,5.45h5.22a21.41,21.41,0,0,1,0,2.37h-5.36l0.11,0.2,2.38,4.15a0.29,0.29,0,0,1,0,.34c-0.39.66-.77,1.33-1.16,2l-0.11.17-0.11-.19-3.74-6.5a0.29,0.29,0,0,0-.29-0.17h-3.22l3.33,5.64h-7a1.29,1.29,0,0,0,.06.14l1.74,3a0.2,0.2,0,0,0,.2.12h7.77a1.2,1.2,0,0,1-.05.13l-1.21,2.1a0.21,0.21,0,0,1-.22.12h-5.06c0.3,0.54.6,1,.9,1.56l0.89,1.54,0.9,1.55-2,1.18-2.63-4.55-3.15,5.46-1.35-2.34,0.51-.89,2.54-4.43a0.28,0.28,0,0,0,0-.32l-1.57-2.71-0.1-.16-3.32,5.74-3.38-5.84-0.09.14-1.57,2.71a0.25,0.25,0,0,0,0,.29l3.74,6.46,0.15,0.25" transform="translate(-444.74 -2773.64)"/>
</svg>
